<svg id="Layer_1" data-name="Layer 1" xmlns="http://www.w3.org/2000/svg" width="246.02" height="99.67" viewBox="0 0 246.02 99.67"><defs><style>.cls-1{fill:#075254;}.cls-2{fill:#99b83c;}.cls-3{fill:#d76427;}.cls-4{fill:#098b8e;}</style></defs><title>logo</title><path class="cls-1" d="M126.78,69.77a3.25,3.25,0,1,1-6.5,0V27.47a3.25,3.25,0,1,1,6.5,0Z"/><path class="cls-1" d="M148.08,54.67h-6.2v15.1a3.25,3.25,0,1,1-6.5,0V27.28a2.84,2.84,0,0,1,2.7-2.8h15.8c10.1,0,14.3,7.6,14.3,15.1,0,7.1-3.6,14.1-12.6,14.8l9.4,13.4a3.23,3.23,0,0,1-5.3,3.7Zm-6.2-24.1v18h11.5c5.9,0,8-4.5,8-9s-2.2-9-7.8-9Z"/><path class="cls-1" d="M180.17,52.08v14.6h20.2a3.05,3.05,0,1,1,0,6.1H177a3.42,3.42,0,0,1-3.3-3.4V27.87a3.42,3.42,0,0,1,3.3-3.4h22.5a3,3,0,0,1,3.1,3,3.12,3.12,0,0,1-3.1,3.1h-19.3V46h16.7a3.05,3.05,0,1,1,0,6.1Z"/><path class="cls-1" d="M215.67,71.67a3.33,3.33,0,0,1-4.6.8,3.22,3.22,0,0,1-.7-4.6l13.6-21-11.9-17.6a3.15,3.15,0,0,1,1-4.5,3.29,3.29,0,0,1,4.5,1.1l10.3,15.7,10.3-15.7a3.26,3.26,0,0,1,4.5-1.1,3.15,3.15,0,0,1,1,4.5l-11.9,17.6L245.38,68a3.22,3.22,0,0,1-.7,4.6,3.42,3.42,0,0,1-4.6-.8l-12.2-19.5Z"/><path class="cls-2" d="M58.68,64.58a46.11,46.11,0,0,1-1.5-7.2,53.45,53.45,0,0,0-45.6,15.3l-4.2,4.1a3.57,3.57,0,0,0,0,4.9,3.41,3.41,0,0,0,2.4,1,3.1,3.1,0,0,0,2.4-1l4.2-4.2A46.8,46.8,0,0,1,58.68,64.58Z"/><path class="cls-2" d="M64.88,61.08v0Z"/><path class="cls-2" d="M32.68,93.77a3.46,3.46,0,0,0,4.9,4.9,17.32,17.32,0,0,1,24.4,0,3.41,3.41,0,0,0,2.4,1,3.1,3.1,0,0,0,2.4-1,3.57,3.57,0,0,0,0-4.9A24.14,24.14,0,0,0,32.68,93.77Z"/><path class="cls-2" d="M72.47,88.08a52.24,52.24,0,0,1-10.2-14.2,39.11,39.11,0,0,0-40.2,9.4L18,87.38a3.57,3.57,0,0,0,0,4.9,3.41,3.41,0,0,0,2.4,1,3.1,3.1,0,0,0,2.4-1l4.2-4.2a32.11,32.11,0,0,1,45.5,0Z"/><path class="cls-3" d="M35.18,22.18h0c-.5-.8-.9-1.5-1.4-2.2a.1.1,0,0,0-.1-.1,37.92,37.92,0,0,0-3-4c-.1-.1-.2-.2-.2-.3L29,13.77l-.3-.3c-.5-.6-1.1-1.2-1.7-1.8l-4.2-4.2a3.57,3.57,0,0,0-4.9,0,3.57,3.57,0,0,0,0,4.9l4.2,4.2,1.5,1.5.3.3a10.1,10.1,0,0,1,1.3,1.6l.2.2,1.2,1.5c0,.1.1.1.1.2.4.6.8,1.2,1.2,1.7,0,.1.1.1.1.2a46.72,46.72,0,0,1,7.8,26V50a44.56,44.56,0,0,1-.9,8.8,46.11,46.11,0,0,1,7.2-1.5A51.71,51.71,0,0,0,35.18,22.18Z"/><path class="cls-3" d="M12.28,18.08a3.57,3.57,0,0,0-4.9,0,3.57,3.57,0,0,0,0,4.9l4.1,4.1a32.11,32.11,0,0,1,0,45.5h0a56.59,56.59,0,0,1,14.2-10.3,38.89,38.89,0,0,0-9.4-40.1Z"/><path class="cls-3" d="M5.88,32.78a3.57,3.57,0,0,0-4.9,0,3.57,3.57,0,0,0,0,4.9,17.1,17.1,0,0,1,5.1,12.2A17.1,17.1,0,0,1,1,62.08,3.57,3.57,0,0,0,1,67a3.41,3.41,0,0,0,2.4,1,3.1,3.1,0,0,0,2.4-1,23.89,23.89,0,0,0,7.1-17.1A24.22,24.22,0,0,0,5.88,32.78Z"/><path class="cls-1" d="M49.77,13a24.16,24.16,0,0,0,17.1-7.1,3.57,3.57,0,0,0,0-4.9A3.57,3.57,0,0,0,62,1a17.32,17.32,0,0,1-24.4,0,3.57,3.57,0,0,0-4.9,0,3.57,3.57,0,0,0,0,4.9A23.75,23.75,0,0,0,49.77,13Z"/><path class="cls-1" d="M92.07,18.08a3.57,3.57,0,0,0-4.9,0l-4.1,4.1a46.86,46.86,0,0,1-42.3,13,46.11,46.11,0,0,1,1.5,7.2,48.52,48.52,0,0,0,7.6.5A53.75,53.75,0,0,0,88,27.08l4.1-4.1A3.38,3.38,0,0,0,92.07,18.08Z"/><path class="cls-1" d="M49.77,28a38.91,38.91,0,0,0,27.6-11.4l4.2-4.2a3.57,3.57,0,0,0,0-4.9,3.57,3.57,0,0,0-4.9,0l-4.2,4.2a32.11,32.11,0,0,1-45.5,0,52.24,52.24,0,0,1,10.2,14.2A38.73,38.73,0,0,0,49.77,28Z"/><path class="cls-4" d="M77.38,83.17a46.91,46.91,0,0,1-12.9-42.3,46.11,46.11,0,0,1-7.2,1.5,53.88,53.88,0,0,0,15.2,45.7l4.2,4.2a3.41,3.41,0,0,0,2.4,1,3.1,3.1,0,0,0,2.4-1,3.57,3.57,0,0,0,0-4.9Z"/><path class="cls-4" d="M88,72.58a32.11,32.11,0,0,1,0-45.5,53.82,53.82,0,0,1-14.2,10.2,39.11,39.11,0,0,0,9.4,40.2l4.1,4.1a3.41,3.41,0,0,0,2.4,1,3.1,3.1,0,0,0,2.4-1,3.57,3.57,0,0,0,0-4.9Z"/><path class="cls-4" d="M98.57,37.67a3.46,3.46,0,0,0-4.9-4.9,24.14,24.14,0,0,0,0,34.1,3.41,3.41,0,0,0,2.4,1,3.1,3.1,0,0,0,2.4-1,3.57,3.57,0,0,0,0-4.9A17.11,17.11,0,0,1,98.57,37.67Z"/></svg>